<mxfile host="app.diagrams.net" modified="2023-03-02T05:56:16.800Z" agent="5.0 (Windows NT 10.0; Win64; x64) AppleWebKit/537.36 (KHTML, like Gecko) Chrome/109.0.0.0 Safari/537.36" etag="i6MZmLT2yEtFpQAg-pCh" version="20.8.23" type="github">
  <diagram id="C5RBs43oDa-KdzZeNtuy" name="Page-1">
    <mxGraphModel dx="1244" dy="502" grid="1" gridSize="10" guides="1" tooltips="1" connect="1" arrows="1" fold="1" page="1" pageScale="1" pageWidth="827" pageHeight="1169" math="0" shadow="0">
      <root>
        <mxCell id="WIyWlLk6GJQsqaUBKTNV-0" />
        <mxCell id="WIyWlLk6GJQsqaUBKTNV-1" parent="WIyWlLk6GJQsqaUBKTNV-0" />
        <mxCell id="khj0u-b_a6s8w3uMLPm0-22" value="对word进行词生图" style="shape=note;whiteSpace=wrap;html=1;backgroundOutline=1;darkOpacity=0.05;fillColor=#FFF2CC;" vertex="1" parent="WIyWlLk6GJQsqaUBKTNV-1">
          <mxGeometry x="1340" y="1553" width="190" height="60" as="geometry" />
        </mxCell>
        <mxCell id="khj0u-b_a6s8w3uMLPm0-25" value="StylePileEngine" style="swimlane;fontStyle=1;align=center;verticalAlign=top;childLayout=stackLayout;horizontal=1;startSize=26;horizontalStack=0;resizeParent=1;resizeParentMax=0;resizeLast=0;collapsible=1;marginBottom=0;" vertex="1" parent="WIyWlLk6GJQsqaUBKTNV-1">
          <mxGeometry x="682" y="1390" width="160" height="86" as="geometry" />
        </mxCell>
        <mxCell id="khj0u-b_a6s8w3uMLPm0-26" value="" style="line;strokeWidth=1;fillColor=none;align=left;verticalAlign=middle;spacingTop=-1;spacingLeft=3;spacingRight=3;rotatable=0;labelPosition=right;points=[];portConstraint=eastwest;strokeColor=inherit;" vertex="1" parent="khj0u-b_a6s8w3uMLPm0-25">
          <mxGeometry y="26" width="160" height="8" as="geometry" />
        </mxCell>
        <mxCell id="khj0u-b_a6s8w3uMLPm0-27" value="configWordTree()" style="text;strokeColor=none;fillColor=none;align=left;verticalAlign=top;spacingLeft=4;spacingRight=4;overflow=hidden;rotatable=0;points=[[0,0.5],[1,0.5]];portConstraint=eastwest;" vertex="1" parent="khj0u-b_a6s8w3uMLPm0-25">
          <mxGeometry y="34" width="160" height="26" as="geometry" />
        </mxCell>
        <mxCell id="khj0u-b_a6s8w3uMLPm0-28" value="wordToImageProcess()" style="text;strokeColor=none;fillColor=none;align=left;verticalAlign=top;spacingLeft=4;spacingRight=4;overflow=hidden;rotatable=0;points=[[0,0.5],[1,0.5]];portConstraint=eastwest;" vertex="1" parent="khj0u-b_a6s8w3uMLPm0-25">
          <mxGeometry y="60" width="160" height="26" as="geometry" />
        </mxCell>
        <mxCell id="khj0u-b_a6s8w3uMLPm0-30" value="configWordTree()负责对不同维度的词组装为tree结构&lt;br&gt;wordToImageProcess()负责驱动tree执行wordToImage逻辑" style="shape=note;whiteSpace=wrap;html=1;backgroundOutline=1;darkOpacity=0.05;fillColor=#FFF2CC;" vertex="1" parent="WIyWlLk6GJQsqaUBKTNV-1">
          <mxGeometry x="650" y="1539" width="210" height="100" as="geometry" />
        </mxCell>
        <mxCell id="khj0u-b_a6s8w3uMLPm0-31" value="" style="endArrow=none;dashed=1;html=1;dashPattern=1 3;strokeWidth=2;rounded=0;" edge="1" parent="WIyWlLk6GJQsqaUBKTNV-1" source="khj0u-b_a6s8w3uMLPm0-25" target="khj0u-b_a6s8w3uMLPm0-30">
          <mxGeometry width="50" height="50" relative="1" as="geometry">
            <mxPoint x="830" y="1292" as="sourcePoint" />
            <mxPoint x="880" y="1242" as="targetPoint" />
          </mxGeometry>
        </mxCell>
        <mxCell id="khj0u-b_a6s8w3uMLPm0-32" value="Model" style="swimlane;fontStyle=1;align=center;verticalAlign=top;childLayout=stackLayout;horizontal=1;startSize=26;horizontalStack=0;resizeParent=1;resizeParentMax=0;resizeLast=0;collapsible=1;marginBottom=0;" vertex="1" parent="WIyWlLk6GJQsqaUBKTNV-1">
          <mxGeometry x="490" y="770" width="160" height="86" as="geometry" />
        </mxCell>
        <mxCell id="khj0u-b_a6s8w3uMLPm0-33" value="rule: RuleContext" style="text;strokeColor=none;fillColor=none;align=left;verticalAlign=top;spacingLeft=4;spacingRight=4;overflow=hidden;rotatable=0;points=[[0,0.5],[1,0.5]];portConstraint=eastwest;" vertex="1" parent="khj0u-b_a6s8w3uMLPm0-32">
          <mxGeometry y="26" width="160" height="26" as="geometry" />
        </mxCell>
        <mxCell id="khj0u-b_a6s8w3uMLPm0-34" value="" style="line;strokeWidth=1;fillColor=none;align=left;verticalAlign=middle;spacingTop=-1;spacingLeft=3;spacingRight=3;rotatable=0;labelPosition=right;points=[];portConstraint=eastwest;strokeColor=inherit;" vertex="1" parent="khj0u-b_a6s8w3uMLPm0-32">
          <mxGeometry y="52" width="160" height="8" as="geometry" />
        </mxCell>
        <mxCell id="khj0u-b_a6s8w3uMLPm0-35" value="wordToImage()" style="text;strokeColor=none;fillColor=none;align=left;verticalAlign=top;spacingLeft=4;spacingRight=4;overflow=hidden;rotatable=0;points=[[0,0.5],[1,0.5]];portConstraint=eastwest;" vertex="1" parent="khj0u-b_a6s8w3uMLPm0-32">
          <mxGeometry y="60" width="160" height="26" as="geometry" />
        </mxCell>
        <mxCell id="khj0u-b_a6s8w3uMLPm0-36" value="BaseModel" style="swimlane;fontStyle=1;align=center;verticalAlign=top;childLayout=stackLayout;horizontal=1;startSize=26;horizontalStack=0;resizeParent=1;resizeParentMax=0;resizeLast=0;collapsible=1;marginBottom=0;" vertex="1" parent="WIyWlLk6GJQsqaUBKTNV-1">
          <mxGeometry x="370" y="963" width="160" height="60" as="geometry" />
        </mxCell>
        <mxCell id="khj0u-b_a6s8w3uMLPm0-37" value="" style="line;strokeWidth=1;fillColor=none;align=left;verticalAlign=middle;spacingTop=-1;spacingLeft=3;spacingRight=3;rotatable=0;labelPosition=right;points=[];portConstraint=eastwest;strokeColor=inherit;" vertex="1" parent="khj0u-b_a6s8w3uMLPm0-36">
          <mxGeometry y="26" width="160" height="8" as="geometry" />
        </mxCell>
        <mxCell id="khj0u-b_a6s8w3uMLPm0-38" value="wordToImage()" style="text;strokeColor=none;fillColor=none;align=left;verticalAlign=top;spacingLeft=4;spacingRight=4;overflow=hidden;rotatable=0;points=[[0,0.5],[1,0.5]];portConstraint=eastwest;" vertex="1" parent="khj0u-b_a6s8w3uMLPm0-36">
          <mxGeometry y="34" width="160" height="26" as="geometry" />
        </mxCell>
        <mxCell id="khj0u-b_a6s8w3uMLPm0-39" value="Extends" style="endArrow=block;endSize=16;endFill=0;html=1;rounded=0;exitX=0.5;exitY=0;exitDx=0;exitDy=0;" edge="1" parent="WIyWlLk6GJQsqaUBKTNV-1" source="khj0u-b_a6s8w3uMLPm0-36" target="khj0u-b_a6s8w3uMLPm0-32">
          <mxGeometry width="160" relative="1" as="geometry">
            <mxPoint x="640" y="913" as="sourcePoint" />
            <mxPoint x="800" y="913" as="targetPoint" />
          </mxGeometry>
        </mxCell>
        <mxCell id="khj0u-b_a6s8w3uMLPm0-40" value="OtherModel" style="swimlane;fontStyle=1;align=center;verticalAlign=top;childLayout=stackLayout;horizontal=1;startSize=26;horizontalStack=0;resizeParent=1;resizeParentMax=0;resizeLast=0;collapsible=1;marginBottom=0;" vertex="1" parent="WIyWlLk6GJQsqaUBKTNV-1">
          <mxGeometry x="600" y="963" width="160" height="60" as="geometry" />
        </mxCell>
        <mxCell id="khj0u-b_a6s8w3uMLPm0-41" value="" style="line;strokeWidth=1;fillColor=none;align=left;verticalAlign=middle;spacingTop=-1;spacingLeft=3;spacingRight=3;rotatable=0;labelPosition=right;points=[];portConstraint=eastwest;strokeColor=inherit;" vertex="1" parent="khj0u-b_a6s8w3uMLPm0-40">
          <mxGeometry y="26" width="160" height="8" as="geometry" />
        </mxCell>
        <mxCell id="khj0u-b_a6s8w3uMLPm0-42" value="wordToImage()" style="text;strokeColor=none;fillColor=none;align=left;verticalAlign=top;spacingLeft=4;spacingRight=4;overflow=hidden;rotatable=0;points=[[0,0.5],[1,0.5]];portConstraint=eastwest;" vertex="1" parent="khj0u-b_a6s8w3uMLPm0-40">
          <mxGeometry y="34" width="160" height="26" as="geometry" />
        </mxCell>
        <mxCell id="khj0u-b_a6s8w3uMLPm0-43" value="Extends" style="endArrow=block;endSize=16;endFill=0;html=1;rounded=0;exitX=0.5;exitY=0;exitDx=0;exitDy=0;" edge="1" parent="WIyWlLk6GJQsqaUBKTNV-1" source="khj0u-b_a6s8w3uMLPm0-40" target="khj0u-b_a6s8w3uMLPm0-32">
          <mxGeometry width="160" relative="1" as="geometry">
            <mxPoint x="710" y="933" as="sourcePoint" />
            <mxPoint x="870" y="933" as="targetPoint" />
          </mxGeometry>
        </mxCell>
        <mxCell id="khj0u-b_a6s8w3uMLPm0-44" value="Rule" style="swimlane;fontStyle=1;align=center;verticalAlign=top;childLayout=stackLayout;horizontal=1;startSize=26;horizontalStack=0;resizeParent=1;resizeParentMax=0;resizeLast=0;collapsible=1;marginBottom=0;" vertex="1" parent="WIyWlLk6GJQsqaUBKTNV-1">
          <mxGeometry x="1110" y="783" width="190" height="60" as="geometry" />
        </mxCell>
        <mxCell id="khj0u-b_a6s8w3uMLPm0-45" value="" style="line;strokeWidth=1;fillColor=none;align=left;verticalAlign=middle;spacingTop=-1;spacingLeft=3;spacingRight=3;rotatable=0;labelPosition=right;points=[];portConstraint=eastwest;strokeColor=inherit;" vertex="1" parent="khj0u-b_a6s8w3uMLPm0-44">
          <mxGeometry y="26" width="190" height="8" as="geometry" />
        </mxCell>
        <mxCell id="khj0u-b_a6s8w3uMLPm0-46" value="wordToWord(input String) : String" style="text;strokeColor=none;fillColor=none;align=left;verticalAlign=top;spacingLeft=4;spacingRight=4;overflow=hidden;rotatable=0;points=[[0,0.5],[1,0.5]];portConstraint=eastwest;" vertex="1" parent="khj0u-b_a6s8w3uMLPm0-44">
          <mxGeometry y="34" width="190" height="26" as="geometry" />
        </mxCell>
        <mxCell id="khj0u-b_a6s8w3uMLPm0-47" value="1" style="endArrow=open;html=1;endSize=12;startArrow=diamondThin;startSize=14;startFill=0;edgeStyle=orthogonalEdgeStyle;align=left;verticalAlign=bottom;rounded=0;" edge="1" parent="WIyWlLk6GJQsqaUBKTNV-1" source="khj0u-b_a6s8w3uMLPm0-65" target="khj0u-b_a6s8w3uMLPm0-44">
          <mxGeometry x="-1" y="3" relative="1" as="geometry">
            <mxPoint x="760" y="780" as="sourcePoint" />
            <mxPoint x="920" y="780" as="targetPoint" />
          </mxGeometry>
        </mxCell>
        <mxCell id="khj0u-b_a6s8w3uMLPm0-48" value="Directions" style="swimlane;fontStyle=1;align=center;verticalAlign=top;childLayout=stackLayout;horizontal=1;startSize=26;horizontalStack=0;resizeParent=1;resizeParentMax=0;resizeLast=0;collapsible=1;marginBottom=0;" vertex="1" parent="WIyWlLk6GJQsqaUBKTNV-1">
          <mxGeometry x="1477.5" y="880" width="195" height="60" as="geometry" />
        </mxCell>
        <mxCell id="khj0u-b_a6s8w3uMLPm0-49" value="" style="line;strokeWidth=1;fillColor=none;align=left;verticalAlign=middle;spacingTop=-1;spacingLeft=3;spacingRight=3;rotatable=0;labelPosition=right;points=[];portConstraint=eastwest;strokeColor=inherit;" vertex="1" parent="khj0u-b_a6s8w3uMLPm0-48">
          <mxGeometry y="26" width="195" height="8" as="geometry" />
        </mxCell>
        <mxCell id="khj0u-b_a6s8w3uMLPm0-50" value="wordToWord(input String) : String" style="text;strokeColor=none;fillColor=none;align=left;verticalAlign=top;spacingLeft=4;spacingRight=4;overflow=hidden;rotatable=0;points=[[0,0.5],[1,0.5]];portConstraint=eastwest;" vertex="1" parent="khj0u-b_a6s8w3uMLPm0-48">
          <mxGeometry y="34" width="195" height="26" as="geometry" />
        </mxCell>
        <mxCell id="khj0u-b_a6s8w3uMLPm0-51" value="PromptGenRule" style="swimlane;fontStyle=1;align=center;verticalAlign=top;childLayout=stackLayout;horizontal=1;startSize=26;horizontalStack=0;resizeParent=1;resizeParentMax=0;resizeLast=0;collapsible=1;marginBottom=0;" vertex="1" parent="WIyWlLk6GJQsqaUBKTNV-1">
          <mxGeometry x="1480" y="783" width="190" height="60" as="geometry" />
        </mxCell>
        <mxCell id="khj0u-b_a6s8w3uMLPm0-52" value="" style="line;strokeWidth=1;fillColor=none;align=left;verticalAlign=middle;spacingTop=-1;spacingLeft=3;spacingRight=3;rotatable=0;labelPosition=right;points=[];portConstraint=eastwest;strokeColor=inherit;" vertex="1" parent="khj0u-b_a6s8w3uMLPm0-51">
          <mxGeometry y="26" width="190" height="8" as="geometry" />
        </mxCell>
        <mxCell id="khj0u-b_a6s8w3uMLPm0-53" value="wordToWord(input String) : String" style="text;strokeColor=none;fillColor=none;align=left;verticalAlign=top;spacingLeft=4;spacingRight=4;overflow=hidden;rotatable=0;points=[[0,0.5],[1,0.5]];portConstraint=eastwest;" vertex="1" parent="khj0u-b_a6s8w3uMLPm0-51">
          <mxGeometry y="34" width="190" height="26" as="geometry" />
        </mxCell>
        <mxCell id="khj0u-b_a6s8w3uMLPm0-55" value="Extends" style="endArrow=block;endSize=16;endFill=0;html=1;rounded=0;" edge="1" parent="WIyWlLk6GJQsqaUBKTNV-1" source="khj0u-b_a6s8w3uMLPm0-51" target="khj0u-b_a6s8w3uMLPm0-44">
          <mxGeometry width="160" relative="1" as="geometry">
            <mxPoint x="1340" y="850" as="sourcePoint" />
            <mxPoint x="1500" y="850" as="targetPoint" />
          </mxGeometry>
        </mxCell>
        <mxCell id="khj0u-b_a6s8w3uMLPm0-56" value="词生词规则抽象" style="shape=note;whiteSpace=wrap;html=1;backgroundOutline=1;darkOpacity=0.05;fillColor=#FFF2CC;" vertex="1" parent="WIyWlLk6GJQsqaUBKTNV-1">
          <mxGeometry x="1240" y="610" width="130" height="80" as="geometry" />
        </mxCell>
        <mxCell id="khj0u-b_a6s8w3uMLPm0-57" value="" style="endArrow=none;dashed=1;html=1;dashPattern=1 3;strokeWidth=2;rounded=0;" edge="1" parent="WIyWlLk6GJQsqaUBKTNV-1" source="khj0u-b_a6s8w3uMLPm0-44" target="khj0u-b_a6s8w3uMLPm0-56">
          <mxGeometry width="50" height="50" relative="1" as="geometry">
            <mxPoint x="1210" y="710" as="sourcePoint" />
            <mxPoint x="1260" y="660" as="targetPoint" />
          </mxGeometry>
        </mxCell>
        <mxCell id="khj0u-b_a6s8w3uMLPm0-58" value="知识" style="shape=note;whiteSpace=wrap;html=1;backgroundOutline=1;darkOpacity=0.05;fillColor=#FFF2CC;" vertex="1" parent="WIyWlLk6GJQsqaUBKTNV-1">
          <mxGeometry x="1620" y="630" width="120" height="80" as="geometry" />
        </mxCell>
        <mxCell id="khj0u-b_a6s8w3uMLPm0-59" value="" style="endArrow=none;dashed=1;html=1;dashPattern=1 3;strokeWidth=2;rounded=0;" edge="1" parent="WIyWlLk6GJQsqaUBKTNV-1" source="khj0u-b_a6s8w3uMLPm0-51" target="khj0u-b_a6s8w3uMLPm0-58">
          <mxGeometry width="50" height="50" relative="1" as="geometry">
            <mxPoint x="1580" y="730" as="sourcePoint" />
            <mxPoint x="1630" y="680" as="targetPoint" />
          </mxGeometry>
        </mxCell>
        <mxCell id="khj0u-b_a6s8w3uMLPm0-63" value="不同模型" style="shape=note;whiteSpace=wrap;html=1;backgroundOutline=1;darkOpacity=0.05;fillColor=#FFF2CC;" vertex="1" parent="WIyWlLk6GJQsqaUBKTNV-1">
          <mxGeometry x="460" y="603" width="80" height="100" as="geometry" />
        </mxCell>
        <mxCell id="khj0u-b_a6s8w3uMLPm0-64" value="" style="endArrow=none;dashed=1;html=1;dashPattern=1 3;strokeWidth=2;rounded=0;" edge="1" parent="WIyWlLk6GJQsqaUBKTNV-1" source="khj0u-b_a6s8w3uMLPm0-32" target="khj0u-b_a6s8w3uMLPm0-63">
          <mxGeometry width="50" height="50" relative="1" as="geometry">
            <mxPoint x="700" y="743" as="sourcePoint" />
            <mxPoint x="750" y="693" as="targetPoint" />
          </mxGeometry>
        </mxCell>
        <mxCell id="khj0u-b_a6s8w3uMLPm0-65" value="RuleContext" style="swimlane;fontStyle=1;align=center;verticalAlign=top;childLayout=stackLayout;horizontal=1;startSize=26;horizontalStack=0;resizeParent=1;resizeParentMax=0;resizeLast=0;collapsible=1;marginBottom=0;fillColor=#FFFFFF;" vertex="1" parent="WIyWlLk6GJQsqaUBKTNV-1">
          <mxGeometry x="790" y="757" width="200" height="112" as="geometry" />
        </mxCell>
        <mxCell id="khj0u-b_a6s8w3uMLPm0-66" value="" style="line;strokeWidth=1;fillColor=none;align=left;verticalAlign=middle;spacingTop=-1;spacingLeft=3;spacingRight=3;rotatable=0;labelPosition=right;points=[];portConstraint=eastwest;strokeColor=inherit;" vertex="1" parent="khj0u-b_a6s8w3uMLPm0-65">
          <mxGeometry y="26" width="200" height="8" as="geometry" />
        </mxCell>
        <mxCell id="khj0u-b_a6s8w3uMLPm0-67" value="wordToWordProcess(）" style="text;strokeColor=none;fillColor=none;align=left;verticalAlign=top;spacingLeft=4;spacingRight=4;overflow=hidden;rotatable=0;points=[[0,0.5],[1,0.5]];portConstraint=eastwest;" vertex="1" parent="khj0u-b_a6s8w3uMLPm0-65">
          <mxGeometry y="34" width="200" height="26" as="geometry" />
        </mxCell>
        <mxCell id="khj0u-b_a6s8w3uMLPm0-68" value="genRuleFactory(Enum RuleType)" style="text;strokeColor=none;fillColor=none;align=left;verticalAlign=top;spacingLeft=4;spacingRight=4;overflow=hidden;rotatable=0;points=[[0,0.5],[1,0.5]];portConstraint=eastwest;" vertex="1" parent="khj0u-b_a6s8w3uMLPm0-65">
          <mxGeometry y="60" width="200" height="26" as="geometry" />
        </mxCell>
        <mxCell id="khj0u-b_a6s8w3uMLPm0-69" value="queryValidLoopWord()" style="text;strokeColor=none;fillColor=none;align=left;verticalAlign=top;spacingLeft=4;spacingRight=4;overflow=hidden;rotatable=0;points=[[0,0.5],[1,0.5]];portConstraint=eastwest;" vertex="1" parent="khj0u-b_a6s8w3uMLPm0-65">
          <mxGeometry y="86" width="200" height="26" as="geometry" />
        </mxCell>
        <mxCell id="khj0u-b_a6s8w3uMLPm0-70" value="1" style="endArrow=open;html=1;endSize=12;startArrow=diamondThin;startSize=14;startFill=0;edgeStyle=orthogonalEdgeStyle;align=left;verticalAlign=bottom;rounded=0;" edge="1" parent="WIyWlLk6GJQsqaUBKTNV-1" source="khj0u-b_a6s8w3uMLPm0-32" target="khj0u-b_a6s8w3uMLPm0-65">
          <mxGeometry x="-1" y="3" relative="1" as="geometry">
            <mxPoint x="830" y="880" as="sourcePoint" />
            <mxPoint x="990" y="880" as="targetPoint" />
          </mxGeometry>
        </mxCell>
        <mxCell id="khj0u-b_a6s8w3uMLPm0-71" value="wordToWordProcess()对规则的封装，处理规则公共部分，如调用规则前筛选标注无效记录；调用规则后记录Rule产生;&lt;br&gt;genRuleFactory()可负责产生策略实例工厂" style="shape=note;whiteSpace=wrap;html=1;backgroundOutline=1;darkOpacity=0.05;fillColor=#FFF2CC;" vertex="1" parent="WIyWlLk6GJQsqaUBKTNV-1">
          <mxGeometry x="600" y="590" width="260" height="100" as="geometry" />
        </mxCell>
        <mxCell id="khj0u-b_a6s8w3uMLPm0-72" value="" style="endArrow=none;dashed=1;html=1;dashPattern=1 3;strokeWidth=2;rounded=0;" edge="1" parent="WIyWlLk6GJQsqaUBKTNV-1" source="khj0u-b_a6s8w3uMLPm0-65" target="khj0u-b_a6s8w3uMLPm0-71">
          <mxGeometry width="50" height="50" relative="1" as="geometry">
            <mxPoint x="990" y="720" as="sourcePoint" />
            <mxPoint x="1040" y="670" as="targetPoint" />
          </mxGeometry>
        </mxCell>
        <mxCell id="khj0u-b_a6s8w3uMLPm0-73" value="RuleType" style="swimlane;fontStyle=1;align=center;verticalAlign=top;childLayout=stackLayout;horizontal=1;startSize=26;horizontalStack=0;resizeParent=1;resizeParentMax=0;resizeLast=0;collapsible=1;marginBottom=0;fillColor=#FFFFFF;" vertex="1" parent="WIyWlLk6GJQsqaUBKTNV-1">
          <mxGeometry x="890" y="620" width="160" height="60" as="geometry" />
        </mxCell>
        <mxCell id="khj0u-b_a6s8w3uMLPm0-74" value="ruleType: Enum" style="text;strokeColor=none;fillColor=none;align=left;verticalAlign=top;spacingLeft=4;spacingRight=4;overflow=hidden;rotatable=0;points=[[0,0.5],[1,0.5]];portConstraint=eastwest;" vertex="1" parent="khj0u-b_a6s8w3uMLPm0-73">
          <mxGeometry y="26" width="160" height="26" as="geometry" />
        </mxCell>
        <mxCell id="khj0u-b_a6s8w3uMLPm0-75" value="" style="line;strokeWidth=1;fillColor=none;align=left;verticalAlign=middle;spacingTop=-1;spacingLeft=3;spacingRight=3;rotatable=0;labelPosition=right;points=[];portConstraint=eastwest;strokeColor=inherit;" vertex="1" parent="khj0u-b_a6s8w3uMLPm0-73">
          <mxGeometry y="52" width="160" height="8" as="geometry" />
        </mxCell>
        <mxCell id="khj0u-b_a6s8w3uMLPm0-76" value="" style="endArrow=open;endFill=1;endSize=12;html=1;rounded=0;" edge="1" parent="WIyWlLk6GJQsqaUBKTNV-1" source="khj0u-b_a6s8w3uMLPm0-65" target="khj0u-b_a6s8w3uMLPm0-73">
          <mxGeometry width="160" relative="1" as="geometry">
            <mxPoint x="1020" y="720" as="sourcePoint" />
            <mxPoint x="1180" y="720" as="targetPoint" />
          </mxGeometry>
        </mxCell>
        <mxCell id="khj0u-b_a6s8w3uMLPm0-77" value="规则登记枚举&lt;br&gt;PROMPT_GEN&lt;br&gt;STYLE_PLIE&lt;br&gt;... ..." style="shape=note;whiteSpace=wrap;html=1;backgroundOutline=1;darkOpacity=0.05;fillColor=#FFF2CC;" vertex="1" parent="WIyWlLk6GJQsqaUBKTNV-1">
          <mxGeometry x="915" y="440" width="145" height="100" as="geometry" />
        </mxCell>
        <mxCell id="khj0u-b_a6s8w3uMLPm0-78" value="" style="endArrow=none;dashed=1;html=1;dashPattern=1 3;strokeWidth=2;rounded=0;" edge="1" parent="WIyWlLk6GJQsqaUBKTNV-1" source="khj0u-b_a6s8w3uMLPm0-73" target="khj0u-b_a6s8w3uMLPm0-77">
          <mxGeometry width="50" height="50" relative="1" as="geometry">
            <mxPoint x="1080" y="560" as="sourcePoint" />
            <mxPoint x="1130" y="510" as="targetPoint" />
          </mxGeometry>
        </mxCell>
        <mxCell id="khj0u-b_a6s8w3uMLPm0-79" value="LoopWordResultEntity" style="swimlane;fontStyle=1;align=center;verticalAlign=top;childLayout=stackLayout;horizontal=1;startSize=26;horizontalStack=0;resizeParent=1;resizeParentMax=0;resizeLast=0;collapsible=1;marginBottom=0;fillColor=#FFFFFF;" vertex="1" parent="WIyWlLk6GJQsqaUBKTNV-1">
          <mxGeometry x="810" y="950" width="160" height="164" as="geometry" />
        </mxCell>
        <mxCell id="khj0u-b_a6s8w3uMLPm0-80" value="inputWord:String" style="text;strokeColor=none;fillColor=none;align=left;verticalAlign=top;spacingLeft=4;spacingRight=4;overflow=hidden;rotatable=0;points=[[0,0.5],[1,0.5]];portConstraint=eastwest;" vertex="1" parent="khj0u-b_a6s8w3uMLPm0-79">
          <mxGeometry y="26" width="160" height="26" as="geometry" />
        </mxCell>
        <mxCell id="khj0u-b_a6s8w3uMLPm0-81" value="outputWord:String" style="text;strokeColor=none;fillColor=none;align=left;verticalAlign=top;spacingLeft=4;spacingRight=4;overflow=hidden;rotatable=0;points=[[0,0.5],[1,0.5]];portConstraint=eastwest;" vertex="1" parent="khj0u-b_a6s8w3uMLPm0-79">
          <mxGeometry y="52" width="160" height="26" as="geometry" />
        </mxCell>
        <mxCell id="khj0u-b_a6s8w3uMLPm0-82" value="markedState:Enum" style="text;strokeColor=none;fillColor=none;align=left;verticalAlign=top;spacingLeft=4;spacingRight=4;overflow=hidden;rotatable=0;points=[[0,0.5],[1,0.5]];portConstraint=eastwest;" vertex="1" parent="khj0u-b_a6s8w3uMLPm0-79">
          <mxGeometry y="78" width="160" height="26" as="geometry" />
        </mxCell>
        <mxCell id="khj0u-b_a6s8w3uMLPm0-83" value="generationPath:String" style="text;strokeColor=none;fillColor=none;align=left;verticalAlign=top;spacingLeft=4;spacingRight=4;overflow=hidden;rotatable=0;points=[[0,0.5],[1,0.5]];portConstraint=eastwest;" vertex="1" parent="khj0u-b_a6s8w3uMLPm0-79">
          <mxGeometry y="104" width="160" height="26" as="geometry" />
        </mxCell>
        <mxCell id="khj0u-b_a6s8w3uMLPm0-84" value="imagPaths:String" style="text;strokeColor=none;fillColor=none;align=left;verticalAlign=top;spacingLeft=4;spacingRight=4;overflow=hidden;rotatable=0;points=[[0,0.5],[1,0.5]];portConstraint=eastwest;" vertex="1" parent="khj0u-b_a6s8w3uMLPm0-79">
          <mxGeometry y="130" width="160" height="26" as="geometry" />
        </mxCell>
        <mxCell id="khj0u-b_a6s8w3uMLPm0-85" value="" style="line;strokeWidth=1;fillColor=none;align=left;verticalAlign=middle;spacingTop=-1;spacingLeft=3;spacingRight=3;rotatable=0;labelPosition=right;points=[];portConstraint=eastwest;strokeColor=inherit;" vertex="1" parent="khj0u-b_a6s8w3uMLPm0-79">
          <mxGeometry y="156" width="160" height="8" as="geometry" />
        </mxCell>
        <mxCell id="khj0u-b_a6s8w3uMLPm0-86" value="迭代生成词的记录实体，记录词的状态和结果&lt;br&gt;一个输入词可产生多条记录&lt;br&gt;markedState:init、image、note_good、node_bad" style="shape=note;whiteSpace=wrap;html=1;backgroundOutline=1;darkOpacity=0.05;fillColor=#FFF2CC;" vertex="1" parent="WIyWlLk6GJQsqaUBKTNV-1">
          <mxGeometry x="740" y="1160" width="275" height="110" as="geometry" />
        </mxCell>
        <mxCell id="khj0u-b_a6s8w3uMLPm0-87" value="" style="endArrow=none;dashed=1;html=1;dashPattern=1 3;strokeWidth=2;rounded=0;" edge="1" parent="WIyWlLk6GJQsqaUBKTNV-1" source="khj0u-b_a6s8w3uMLPm0-86" target="khj0u-b_a6s8w3uMLPm0-79">
          <mxGeometry width="50" height="50" relative="1" as="geometry">
            <mxPoint x="710" y="1180" as="sourcePoint" />
            <mxPoint x="760" y="1130" as="targetPoint" />
          </mxGeometry>
        </mxCell>
        <mxCell id="khj0u-b_a6s8w3uMLPm0-88" value="" style="endArrow=open;endFill=1;endSize=12;html=1;rounded=0;" edge="1" parent="WIyWlLk6GJQsqaUBKTNV-1" source="khj0u-b_a6s8w3uMLPm0-65" target="khj0u-b_a6s8w3uMLPm0-79">
          <mxGeometry width="160" relative="1" as="geometry">
            <mxPoint x="970" y="900" as="sourcePoint" />
            <mxPoint x="1130" y="900" as="targetPoint" />
          </mxGeometry>
        </mxCell>
        <mxCell id="khj0u-b_a6s8w3uMLPm0-89" value="基础模型" style="shape=note;whiteSpace=wrap;html=1;backgroundOutline=1;darkOpacity=0.05;fillColor=#FFF2CC;" vertex="1" parent="WIyWlLk6GJQsqaUBKTNV-1">
          <mxGeometry x="350" y="1080" width="80" height="100" as="geometry" />
        </mxCell>
        <mxCell id="khj0u-b_a6s8w3uMLPm0-90" value="" style="endArrow=none;dashed=1;html=1;dashPattern=1 3;strokeWidth=2;rounded=0;" edge="1" parent="WIyWlLk6GJQsqaUBKTNV-1" source="khj0u-b_a6s8w3uMLPm0-89" target="khj0u-b_a6s8w3uMLPm0-36">
          <mxGeometry width="50" height="50" relative="1" as="geometry">
            <mxPoint x="490" y="1120" as="sourcePoint" />
            <mxPoint x="540" y="1070" as="targetPoint" />
          </mxGeometry>
        </mxCell>
        <mxCell id="khj0u-b_a6s8w3uMLPm0-95" value="Moods" style="swimlane;fontStyle=1;align=center;verticalAlign=top;childLayout=stackLayout;horizontal=1;startSize=26;horizontalStack=0;resizeParent=1;resizeParentMax=0;resizeLast=0;collapsible=1;marginBottom=0;" vertex="1" parent="WIyWlLk6GJQsqaUBKTNV-1">
          <mxGeometry x="1480" y="970" width="195" height="60" as="geometry" />
        </mxCell>
        <mxCell id="khj0u-b_a6s8w3uMLPm0-96" value="" style="line;strokeWidth=1;fillColor=none;align=left;verticalAlign=middle;spacingTop=-1;spacingLeft=3;spacingRight=3;rotatable=0;labelPosition=right;points=[];portConstraint=eastwest;strokeColor=inherit;" vertex="1" parent="khj0u-b_a6s8w3uMLPm0-95">
          <mxGeometry y="26" width="195" height="8" as="geometry" />
        </mxCell>
        <mxCell id="khj0u-b_a6s8w3uMLPm0-97" value="wordToWord(input String) : String" style="text;strokeColor=none;fillColor=none;align=left;verticalAlign=top;spacingLeft=4;spacingRight=4;overflow=hidden;rotatable=0;points=[[0,0.5],[1,0.5]];portConstraint=eastwest;" vertex="1" parent="khj0u-b_a6s8w3uMLPm0-95">
          <mxGeometry y="34" width="195" height="26" as="geometry" />
        </mxCell>
        <mxCell id="khj0u-b_a6s8w3uMLPm0-98" value="Artist" style="swimlane;fontStyle=1;align=center;verticalAlign=top;childLayout=stackLayout;horizontal=1;startSize=26;horizontalStack=0;resizeParent=1;resizeParentMax=0;resizeLast=0;collapsible=1;marginBottom=0;" vertex="1" parent="WIyWlLk6GJQsqaUBKTNV-1">
          <mxGeometry x="1475" y="1070" width="195" height="60" as="geometry" />
        </mxCell>
        <mxCell id="khj0u-b_a6s8w3uMLPm0-99" value="" style="line;strokeWidth=1;fillColor=none;align=left;verticalAlign=middle;spacingTop=-1;spacingLeft=3;spacingRight=3;rotatable=0;labelPosition=right;points=[];portConstraint=eastwest;strokeColor=inherit;" vertex="1" parent="khj0u-b_a6s8w3uMLPm0-98">
          <mxGeometry y="26" width="195" height="8" as="geometry" />
        </mxCell>
        <mxCell id="khj0u-b_a6s8w3uMLPm0-100" value="wordToWord(input String) : String" style="text;strokeColor=none;fillColor=none;align=left;verticalAlign=top;spacingLeft=4;spacingRight=4;overflow=hidden;rotatable=0;points=[[0,0.5],[1,0.5]];portConstraint=eastwest;" vertex="1" parent="khj0u-b_a6s8w3uMLPm0-98">
          <mxGeometry y="34" width="195" height="26" as="geometry" />
        </mxCell>
        <mxCell id="khj0u-b_a6s8w3uMLPm0-101" value="ArtMovementss" style="swimlane;fontStyle=1;align=center;verticalAlign=top;childLayout=stackLayout;horizontal=1;startSize=26;horizontalStack=0;resizeParent=1;resizeParentMax=0;resizeLast=0;collapsible=1;marginBottom=0;" vertex="1" parent="WIyWlLk6GJQsqaUBKTNV-1">
          <mxGeometry x="1477.5" y="1160" width="195" height="60" as="geometry" />
        </mxCell>
        <mxCell id="khj0u-b_a6s8w3uMLPm0-102" value="" style="line;strokeWidth=1;fillColor=none;align=left;verticalAlign=middle;spacingTop=-1;spacingLeft=3;spacingRight=3;rotatable=0;labelPosition=right;points=[];portConstraint=eastwest;strokeColor=inherit;" vertex="1" parent="khj0u-b_a6s8w3uMLPm0-101">
          <mxGeometry y="26" width="195" height="8" as="geometry" />
        </mxCell>
        <mxCell id="khj0u-b_a6s8w3uMLPm0-103" value="wordToWord(input String) : String" style="text;strokeColor=none;fillColor=none;align=left;verticalAlign=top;spacingLeft=4;spacingRight=4;overflow=hidden;rotatable=0;points=[[0,0.5],[1,0.5]];portConstraint=eastwest;" vertex="1" parent="khj0u-b_a6s8w3uMLPm0-101">
          <mxGeometry y="34" width="195" height="26" as="geometry" />
        </mxCell>
        <mxCell id="khj0u-b_a6s8w3uMLPm0-104" value="Colors" style="swimlane;fontStyle=1;align=center;verticalAlign=top;childLayout=stackLayout;horizontal=1;startSize=26;horizontalStack=0;resizeParent=1;resizeParentMax=0;resizeLast=0;collapsible=1;marginBottom=0;" vertex="1" parent="WIyWlLk6GJQsqaUBKTNV-1">
          <mxGeometry x="1480" y="1244" width="195" height="60" as="geometry" />
        </mxCell>
        <mxCell id="khj0u-b_a6s8w3uMLPm0-105" value="" style="line;strokeWidth=1;fillColor=none;align=left;verticalAlign=middle;spacingTop=-1;spacingLeft=3;spacingRight=3;rotatable=0;labelPosition=right;points=[];portConstraint=eastwest;strokeColor=inherit;" vertex="1" parent="khj0u-b_a6s8w3uMLPm0-104">
          <mxGeometry y="26" width="195" height="8" as="geometry" />
        </mxCell>
        <mxCell id="khj0u-b_a6s8w3uMLPm0-106" value="wordToWord(input String) : String" style="text;strokeColor=none;fillColor=none;align=left;verticalAlign=top;spacingLeft=4;spacingRight=4;overflow=hidden;rotatable=0;points=[[0,0.5],[1,0.5]];portConstraint=eastwest;" vertex="1" parent="khj0u-b_a6s8w3uMLPm0-104">
          <mxGeometry y="34" width="195" height="26" as="geometry" />
        </mxCell>
        <mxCell id="khj0u-b_a6s8w3uMLPm0-107" value="Directions" style="swimlane;fontStyle=1;align=center;verticalAlign=top;childLayout=stackLayout;horizontal=1;startSize=26;horizontalStack=0;resizeParent=1;resizeParentMax=0;resizeLast=0;collapsible=1;marginBottom=0;" vertex="1" parent="WIyWlLk6GJQsqaUBKTNV-1">
          <mxGeometry x="1480" y="1340" width="195" height="60" as="geometry" />
        </mxCell>
        <mxCell id="khj0u-b_a6s8w3uMLPm0-108" value="" style="line;strokeWidth=1;fillColor=none;align=left;verticalAlign=middle;spacingTop=-1;spacingLeft=3;spacingRight=3;rotatable=0;labelPosition=right;points=[];portConstraint=eastwest;strokeColor=inherit;" vertex="1" parent="khj0u-b_a6s8w3uMLPm0-107">
          <mxGeometry y="26" width="195" height="8" as="geometry" />
        </mxCell>
        <mxCell id="khj0u-b_a6s8w3uMLPm0-109" value="wordToWord(input String) : String" style="text;strokeColor=none;fillColor=none;align=left;verticalAlign=top;spacingLeft=4;spacingRight=4;overflow=hidden;rotatable=0;points=[[0,0.5],[1,0.5]];portConstraint=eastwest;" vertex="1" parent="khj0u-b_a6s8w3uMLPm0-107">
          <mxGeometry y="34" width="195" height="26" as="geometry" />
        </mxCell>
        <mxCell id="khj0u-b_a6s8w3uMLPm0-111" value="Extends" style="endArrow=block;endSize=16;endFill=0;html=1;rounded=0;" edge="1" parent="WIyWlLk6GJQsqaUBKTNV-1" source="khj0u-b_a6s8w3uMLPm0-48" target="khj0u-b_a6s8w3uMLPm0-44">
          <mxGeometry width="160" relative="1" as="geometry">
            <mxPoint x="1310" y="890" as="sourcePoint" />
            <mxPoint x="1470" y="890" as="targetPoint" />
          </mxGeometry>
        </mxCell>
        <mxCell id="khj0u-b_a6s8w3uMLPm0-112" value="Extends" style="endArrow=block;endSize=16;endFill=0;html=1;rounded=0;exitX=0;exitY=0.25;exitDx=0;exitDy=0;" edge="1" parent="WIyWlLk6GJQsqaUBKTNV-1" source="khj0u-b_a6s8w3uMLPm0-95" target="khj0u-b_a6s8w3uMLPm0-44">
          <mxGeometry width="160" relative="1" as="geometry">
            <mxPoint x="1488" y="894" as="sourcePoint" />
            <mxPoint x="1310" y="848" as="targetPoint" />
            <Array as="points">
              <mxPoint x="1205" y="980" />
            </Array>
          </mxGeometry>
        </mxCell>
        <mxCell id="khj0u-b_a6s8w3uMLPm0-113" value="Extends" style="endArrow=block;endSize=16;endFill=0;html=1;rounded=0;" edge="1" parent="WIyWlLk6GJQsqaUBKTNV-1" source="khj0u-b_a6s8w3uMLPm0-98" target="khj0u-b_a6s8w3uMLPm0-44">
          <mxGeometry width="160" relative="1" as="geometry">
            <mxPoint x="1430" y="1060" as="sourcePoint" />
            <mxPoint x="1263" y="853" as="targetPoint" />
            <Array as="points">
              <mxPoint x="1200" y="1100" />
            </Array>
          </mxGeometry>
        </mxCell>
        <mxCell id="khj0u-b_a6s8w3uMLPm0-118" value="Extends" style="endArrow=block;endSize=16;endFill=0;html=1;rounded=0;" edge="1" parent="WIyWlLk6GJQsqaUBKTNV-1" source="khj0u-b_a6s8w3uMLPm0-101" target="khj0u-b_a6s8w3uMLPm0-44">
          <mxGeometry width="160" relative="1" as="geometry">
            <mxPoint x="1485" y="1110" as="sourcePoint" />
            <mxPoint x="1214" y="853" as="targetPoint" />
            <Array as="points">
              <mxPoint x="1200" y="1190" />
            </Array>
          </mxGeometry>
        </mxCell>
        <mxCell id="khj0u-b_a6s8w3uMLPm0-119" value="Extends" style="endArrow=block;endSize=16;endFill=0;html=1;rounded=0;" edge="1" parent="WIyWlLk6GJQsqaUBKTNV-1" source="khj0u-b_a6s8w3uMLPm0-104" target="khj0u-b_a6s8w3uMLPm0-44">
          <mxGeometry width="160" relative="1" as="geometry">
            <mxPoint x="1488" y="1200" as="sourcePoint" />
            <mxPoint x="1215" y="853" as="targetPoint" />
            <Array as="points">
              <mxPoint x="1200" y="1274" />
            </Array>
          </mxGeometry>
        </mxCell>
        <mxCell id="khj0u-b_a6s8w3uMLPm0-120" value="Extends" style="endArrow=block;endSize=16;endFill=0;html=1;rounded=0;" edge="1" parent="WIyWlLk6GJQsqaUBKTNV-1" source="khj0u-b_a6s8w3uMLPm0-107" target="khj0u-b_a6s8w3uMLPm0-44">
          <mxGeometry width="160" relative="1" as="geometry">
            <mxPoint x="1490" y="1284" as="sourcePoint" />
            <mxPoint x="1215" y="853" as="targetPoint" />
            <Array as="points">
              <mxPoint x="1200" y="1370" />
            </Array>
          </mxGeometry>
        </mxCell>
      </root>
    </mxGraphModel>
  </diagram>
</mxfile>
